
      <svg data-logo="logo" xmlns="http://www.w3.org/2000/svg" viewBox="0 0 76 29">
        <g id="logogram" transform="translate(0, 14.5) rotate(0) "></g>
        <g id="logotype" transform="translate(0, 1)"><path fill="#cfcfcf" d="M10.95 8.45L10.95 8.45Q11.21 8.45 11.21 8.74L11.21 8.74Q11.21 8.84 11.13 8.93L11.13 8.93Q9.69 10.36 7.81 10.36L7.81 10.36Q7.37 10.36 6.82 9.86Q6.27 9.35 6.27 8.40Q6.27 7.44 7.43 6.27Q8.60 5.10 10.67 4.05Q12.75 3.00 15.86 2.18Q18.97 1.36 21.45 1.36Q23.93 1.36 25.52 1.76Q27.10 2.16 28.00 2.75Q28.90 3.34 29.48 4.07L29.48 4.07Q30.45 5.30 30.45 6.58Q30.45 7.85 29.63 9.20Q28.81 10.55 27.51 11.60Q26.20 12.65 24.51 13.56L24.51 13.56Q21.35 15.23 17.74 16.02L17.74 16.02Q18.35 16.65 20.35 19.19Q22.34 21.73 23.99 23.44Q25.63 25.15 26.54 25.15L26.54 25.15L27.10 24.94Q27.29 24.94 27.29 25.09Q27.29 25.23 26.67 25.92Q26.04 26.62 25.58 26.97Q25.12 27.33 24.33 27.33Q23.53 27.33 22.52 26.56Q21.52 25.79 20.32 24.39Q19.12 22.99 18.17 21.75Q17.21 20.51 15.98 18.83Q14.75 17.15 14.29 16.55L14.29 16.55Q14.12 16.82 13.42 17.91Q12.71 18.99 12.39 19.51Q12.07 20.02 11.45 21.00Q10.83 21.98 10.49 22.58L10.49 22.58Q9.55 24.17 9.19 24.96Q8.82 25.74 7.98 25.74L7.98 25.74L7.38 25.73L6.87 25.74Q5.81 25.74 5.81 24.85L5.81 24.85Q5.81 24.19 6.38 22.95Q6.96 21.71 12.46 13.70Q17.96 5.70 18.53 5.16Q19.09 4.62 19.36 4.55L19.36 4.55Q19.57 4.40 19.64 4.40L19.64 4.40L19.94 4.45L20.23 4.40Q20.39 4.40 20.51 4.53Q20.63 4.65 20.68 4.69L20.68 4.69Q21.40 5.22 21.40 5.58Q21.40 5.94 21.22 6.27Q21.04 6.60 20.23 7.77Q19.43 8.93 18.12 10.78Q16.82 12.64 16.24 13.47L16.24 13.47Q17.64 13.40 19.60 12.62Q21.57 11.83 23.28 10.73Q25.00 9.63 26.22 8.34Q27.45 7.05 27.45 6.09L27.45 6.09Q27.45 5.58 26.92 5.16Q26.39 4.74 25.58 4.50L25.58 4.50Q23.98 4.02 21.96 4.02Q19.94 4.02 16.85 4.89Q13.76 5.77 12.34 6.56Q10.92 7.35 10.29 7.91Q9.66 8.47 9.66 8.69L9.66 8.69Q9.66 8.81 10.01 8.81Q10.36 8.81 10.63 8.63Q10.90 8.45 10.95 8.45ZM38.33 12.98Q38.85 12.98 39.38 13.44Q39.92 13.90 39.92 14.85Q39.92 15.80 39.26 17.31Q38.59 18.82 37.43 20.39Q36.26 21.95 34.87 23.33Q33.48 24.70 31.86 25.58Q30.25 26.46 28.93 26.46Q27.62 26.46 26.82 25.63Q26.03 24.80 26.03 23.33Q26.03 21.85 26.75 20.05Q27.48 18.26 28.63 16.88Q29.77 15.51 31.10 14.41L31.10 14.41Q33.89 12.17 35.99 12.17L35.99 12.17Q36.93 12.17 37.41 12.64L37.41 12.64Q37.58 12.79 37.58 12.91L37.58 12.91L37.58 13.01Q37.82 12.98 38.33 12.98ZM36.61 15.25L36.61 15.25L36.49 15.25Q35.89 15.25 35.89 14.38L35.89 14.38Q34.64 14.79 33.27 15.81Q31.91 16.84 30.83 18.24L30.83 18.24Q28.64 21.04 28.61 22.98L28.61 22.98Q28.61 23.93 29.31 23.93Q30.01 23.93 31.39 23.01Q32.78 22.09 34.14 20.38Q35.50 18.67 36.17 17.41Q36.85 16.16 36.85 15.70Q36.85 15.25 36.61 15.25ZM48.47 23.37L48.47 23.37Q48.47 24.12 49.49 24.12L49.49 24.12Q50.04 24.12 50.87 23.57Q51.70 23.03 52.36 22.38L52.36 22.38Q54.14 20.62 54.38 20.62L54.38 20.62Q54.82 20.62 54.82 21.90Q54.82 23.18 54.02 23.66L54.02 23.66Q51.58 25.86 50.24 26.34L50.24 26.34Q49.49 26.60 48.59 26.58Q47.68 26.56 46.79 25.79Q45.90 25.03 45.90 23.92Q45.90 22.82 46.48 21.42Q47.07 20.02 47.67 19.02Q48.28 18.02 49.17 16.69Q50.06 15.37 50.11 15.05L50.11 15.05L50.07 15.01Q49.51 15.06 47.28 17.23Q45.05 19.40 43.60 21.01Q42.14 22.62 40.13 25.30L40.13 25.30Q39.56 26.03 39.20 26.03Q38.85 26.03 38.24 25.80Q37.63 25.57 37.50 25.47Q37.36 25.37 37.36 25.16Q37.36 24.96 37.48 24.66Q37.60 24.36 37.71 24.16Q37.82 23.97 38.08 23.56Q38.33 23.15 39.09 21.82Q39.85 20.50 41.43 17.87Q43.00 15.23 43.31 14.69L43.31 14.69Q43.96 13.56 44.37 13.05L44.37 13.05Q45.13 12.07 46.96 12.07L46.96 12.07Q47.37 12.07 47.37 12.58L47.37 12.58Q47.37 13.39 45.89 15.61L45.89 15.61L45.17 16.69Q48.13 13.40 50.16 12.53L50.16 12.53Q51.15 12.11 51.94 12.11Q52.74 12.11 53.21 12.53Q53.68 12.96 53.68 13.48Q53.68 14.00 53.32 14.73Q52.96 15.46 52.59 16.03Q52.23 16.60 51.63 17.47Q51.03 18.34 50.98 18.42Q50.93 18.50 50.71 18.83Q50.50 19.16 50.40 19.32Q50.30 19.47 50.06 19.86Q49.82 20.24 49.67 20.50Q49.53 20.75 49.31 21.13Q49.10 21.51 48.97 21.78Q48.84 22.05 48.71 22.38L48.71 22.38Q48.47 22.98 48.47 23.37ZM64.34 7.24L64.34 7.24Q64.34 8.21 63.44 9.19Q62.53 10.17 61.55 10.17Q60.57 10.17 60.57 9.15Q60.57 8.12 61.43 7.19Q62.29 6.26 63.33 6.26L63.33 6.26Q63.80 6.26 64.07 6.52Q64.34 6.77 64.34 7.24ZM61.57 22.15L61.57 22.15Q61.57 22.67 61.47 22.89L61.47 22.89Q60.63 24.60 58.81 25.65Q56.98 26.70 55.63 26.70Q54.28 26.70 53.30 25.79Q52.33 24.89 52.33 23.95Q52.33 23.01 53.27 21.21Q54.21 19.42 55.15 17.90Q56.09 16.38 56.09 16.25Q56.09 16.12 55.74 15.75Q55.39 15.37 55.39 15.19Q55.39 15.01 56.10 14.25Q56.81 13.49 57.82 12.75Q58.84 12.00 59.38 12.00Q59.92 12.00 60.34 12.48Q60.77 12.96 60.77 13.35Q60.77 13.75 56.70 20.75L56.70 20.75Q56.65 20.86 56.42 21.21Q56.19 21.56 56.06 21.79Q55.94 22.02 55.76 22.34L55.76 22.34Q55.42 23.03 55.42 23.49L55.42 23.49Q55.42 24.07 56.21 24.07Q56.99 24.07 57.84 23.53Q58.69 22.99 59.30 22.34L59.30 22.34Q60.91 20.62 61.13 20.62L61.13 20.62Q61.57 20.62 61.57 22.15ZM71.26 4.09L72.07 3.99L72.77 4.16Q72.92 4.16 73.04 4.31Q73.16 4.47 73.16 4.60Q73.16 4.74 72.80 5.34Q72.44 5.94 71.96 6.70Q71.47 7.46 71.44 7.53L71.44 7.53Q72.77 7.42 73.32 7.42Q73.88 7.42 74.08 7.50Q74.29 7.58 74.55 7.93Q74.82 8.28 75.04 8.46Q75.26 8.64 75.26 9.00Q75.26 9.35 74.83 9.60Q74.39 9.85 73.90 9.90L73.90 9.90Q69.93 10.29 69.52 10.31L69.52 10.31Q68.14 12.43 65.65 16.92Q63.16 21.40 63.01 22.53L63.01 22.53Q62.94 23.04 62.94 23.37L62.94 23.37Q62.94 24.03 63.64 24.03Q64.34 24.03 65.20 23.50Q66.05 22.96 66.77 22.33L66.77 22.33Q68.68 20.62 68.82 20.62L68.82 20.62Q69.27 20.62 69.27 22.15L69.27 22.15Q69.27 22.99 68.50 23.66L68.50 23.66Q66.77 25.15 65.59 25.90Q64.41 26.65 63.23 26.65L63.23 26.65Q62.98 26.65 62.75 26.60L62.75 26.60Q61.39 26.34 60.75 25.60Q60.10 24.85 60.11 23.59Q60.12 22.33 60.87 20.52Q61.61 18.72 62.74 16.69L62.74 16.69Q64.58 13.37 66.43 10.47L66.43 10.47L65.78 10.55Q63.80 10.77 63.47 10.77L63.47 10.77L63.32 10.77Q62.82 10.77 62.36 10.58Q61.90 10.38 61.90 10.09Q61.90 9.80 62.15 9.53Q62.40 9.25 62.45 9.10L62.45 9.10Q62.57 8.72 63.34 8.26Q64.12 7.80 64.51 7.77Q64.91 7.75 65.27 7.73Q65.64 7.71 66.09 7.70Q66.55 7.68 66.79 7.66L66.79 7.66L68.33 7.59Q69.76 5.44 70.30 4.83Q70.84 4.21 70.92 4.15Q71.01 4.09 71.26 4.09L71.26 4.09Z"/></g>
        
      </svg>
    